<svg width="1920" height="791" viewBox="0 0 1920 791" fill="none" xmlns="http://www.w3.org/2000/svg">
<g clip-path="url(#clip0)">
<path fill-rule="evenodd" clip-rule="evenodd" d="M1625 205C1652.61 205 1675 227.386 1675 255C1675 282.614 1652.61 305 1625 305C1597.39 305 1575 282.614 1575 255C1575 227.386 1597.39 205 1625 205Z" fill="#F07167"/>
<path fill-rule="evenodd" clip-rule="evenodd" d="M992 602C1019.61 602 1042 624.386 1042 652C1042 679.614 1019.61 702 992 702C964.386 702 942 679.614 942 652C942 624.386 964.386 602 992 602Z" fill="#F07167"/>
<path fill-rule="evenodd" clip-rule="evenodd" d="M1242 624L1430 420L1898 791H1453L1242 624Z" fill="#F07167"/>
<path fill-rule="evenodd" clip-rule="evenodd" d="M1339 386C1415.77 386 1478 448.232 1478 525C1478 601.768 1415.77 664 1339 664C1262.23 664 1200 601.768 1200 525C1200 448.232 1262.23 386 1339 386Z" fill="#F07167"/>
<path fill-rule="evenodd" clip-rule="evenodd" d="M117.128 393.291L321.074 649.795L-197 1128.63L-116.137 609.224L117.128 393.291Z" fill="#F07167"/>
<path fill-rule="evenodd" clip-rule="evenodd" d="M377.295 549.758C363.345 639.361 279.4 700.69 189.796 686.74C100.192 672.79 38.8633 588.845 52.8132 499.241C66.7631 409.637 150.709 348.308 240.313 362.258C329.916 376.208 391.245 460.154 377.295 549.758Z" fill="#F07167"/>
<path fill-rule="evenodd" clip-rule="evenodd" d="M1026.5 -188C1171.48 -188 1289 -70.475 1289 74.5C1289 219.475 1171.48 337 1026.5 337C881.525 337 764 219.475 764 74.5C764 -70.475 881.525 -188 1026.5 -188Z" fill="#F07167"/>
<path fill-rule="evenodd" clip-rule="evenodd" d="M273 105C300.614 105 323 127.386 323 155C323 182.614 300.614 205 273 205C245.386 205 223 182.614 223 155C223 127.386 245.386 105 273 105Z" fill="#F07167"/>
</g>
<defs>
<clipPath id="clip0">
<rect width="1920" height="791" fill="white"/>
</clipPath>
</defs>
</svg>
